<?xml version="1.0" encoding="UTF-8"?><svg id="Camada_1" xmlns="http://www.w3.org/2000/svg" xmlns:xlink="http://www.w3.org/1999/xlink" viewBox="250 250 650 650"><defs><style>.cls-1,.cls-2{fill:#fff;}.cls-2,.cls-3{fill-rule:evenodd;}.cls-4{mask:url(#mask);}.cls-3{fill:#e5e4e4;}.cls-5{fill:#e73b22;}</style><mask id="mask" x="-522.23" y="384.48" width="1277.98" height="633.6" maskUnits="userSpaceOnUse"/></defs><g><g><path class="cls-5" d="M629.91,403.96l17.98-3.01c-2.88-49.8,32.15-94.81,82.47-103.24,53.93-9.04,104.97,27.35,114.01,81.28,8.43,50.32-22.69,98.12-70.71,111.63l3.01,17.98c57.9-15.24,95.67-72.4,85.58-132.61-10.69-63.8-71.09-106.86-134.89-96.17-60.21,10.09-101.93,64.44-97.46,124.14Z"/><path class="cls-5" d="M790.71,387.98c-4.07-24.29-27.06-40.68-51.35-36.61-20.61,3.45-35.53,20.53-37.09,40.47l18.86-3.16c2.56-9.77,10.62-17.64,21.23-19.42,14.41-2.42,28.05,7.31,30.47,21.72,1.78,10.61-3.03,20.8-11.44,26.4l3.16,18.86c18.33-7.98,29.62-27.64,26.16-48.25Z"/><path class="cls-5" d="M826.49,381.98c-7.38-44.05-49.07-73.77-93.12-66.39-40.43,6.78-68.76,42.46-67.44,82.33l18.09-3.03c.18-29.93,21.82-56.3,52.35-61.41,34.17-5.73,66.51,17.33,72.24,51.5,5.12,30.53-12.75,59.58-40.99,69.51l3.03,18.09c38.13-11.75,62.62-50.18,55.84-90.6Z"/></g><g><path class="cls-3" d="M737.83,533.98l9.24-73.48,9.24-73.49-146.28,58.61c24.45,3.72,46.09,10.97,64.91,21.74l33.27-20.31-11.4,35.41c16.49,13.65,30.17,30.83,41.04,51.52h0Z"/><g class="cls-4"><path class="cls-2" d="M708.2,447.05l-11.4,35.41c16.49,13.65,30.17,30.83,41.04,51.52l9.24-73.48,9.24-73.49c-32.08,40.03-48.11,60.05-48.11,60.05h0Z"/></g></g></g><path class="cls-1" d="M332.99,734.65c-10.24,0-18.59-3.11-25.05-9.29-6.47-6.19-9.7-14.41-9.7-24.65v-135.76c0-5.38-2.7-8.08-8.08-8.08h-11.31c-9.7,0-16.97-2.95-21.82-8.89-4.85-5.92-7.27-13.46-7.27-22.63,0-9.7,2.43-17.64,7.27-23.84,4.85-6.19,12.12-9.29,21.82-9.29h11.31c5.38,0,8.08-2.69,8.08-8.08v-16.97c0-29.62,7.94-52.39,23.84-68.29,15.88-15.88,36.77-23.84,62.63-23.84,5.92,0,12.53,.4,19.8,1.21,7.27,.81,13.06,2.02,17.37,3.64,7.54,2.7,13.06,7.01,16.57,12.93,3.5,5.94,5.25,12.12,5.25,18.59,0,8.62-2.7,16.57-8.08,23.84-5.39,7.27-12.93,10.91-22.63,10.91-4.32,0-8.36-.53-12.12-1.62-3.78-1.07-7.82-1.62-12.12-1.62-12.93,0-19.4,9.17-19.4,27.48v13.74c0,5.39,2.69,8.08,8.08,8.08h29.9c9.15,0,16.83,3.23,23.03,9.7,6.19,6.47,9.29,14.28,9.29,23.44s-3.11,16.71-9.29,22.63c-6.2,5.93-14.14,8.89-23.84,8.89h-29.09c-5.39,0-8.08,2.7-8.08,8.08v135.76c0,9.7-3.37,17.78-10.1,24.24-6.74,6.47-15.49,9.7-26.26,9.7Z"/><path class="cls-5" d="M581.69,734.42c-24.18,0-44.6-7.53-61.25-22.57-4.84,15.04-15.85,22.57-33.04,22.57-10.21,0-18.81-2.96-25.79-8.86-6.99-5.91-10.48-13.42-10.48-22.57V403.2c0-8.59,3.35-15.98,10.07-22.16,6.71-6.17,15.44-9.27,26.19-9.27,10.2,0,18.54,3.1,24.98,9.27,6.45,6.18,9.67,13.84,9.67,22.97v105.57c18.26-16.65,38.95-24.98,62.05-24.98,35.46,0,63.79,11.16,85.02,33.44,21.22,22.3,31.83,52.52,31.83,90.66s-10.75,68.64-32.24,91.47c-21.49,22.84-50.51,34.25-87.04,34.25Zm-5.64-65.28c16.65,0,29.94-5.77,39.89-17.33,9.94-11.55,14.91-25.92,14.91-43.12s-4.97-31.96-14.91-42.71c-9.95-10.74-23.24-16.12-39.89-16.12s-29.15,5.38-39.09,16.12c-9.95,10.75-14.91,24.98-14.91,42.71s4.96,31.57,14.91,43.12c9.93,11.56,22.97,17.33,39.09,17.33Z"/></svg>