<svg id="Grupo_122" data-name="Grupo 122" xmlns="http://www.w3.org/2000/svg" xmlns:xlink="http://www.w3.org/1999/xlink" width="143.775" height="42.672" viewBox="0 0 143.775 42.672">
  <defs>
    <clipPath id="clip-path">
      <rect id="Retângulo_50" data-name="Retângulo 50" width="143.775" height="42.672" fill="none"/>
    </clipPath>
    <clipPath id="clip-path-2">
      <path id="Caminho_80" data-name="Caminho 80" d="M1116.551,139.371h0Z" transform="translate(-1116.551 -139.371)" fill="none"/>
    </clipPath>
    <linearGradient id="linear-gradient" x1="-247210.141" y1="60856.309" x2="-246988.734" y2="60856.309" gradientUnits="objectBoundingBox">
      <stop offset="0" stop-color="#181d53"/>
      <stop offset="0.142" stop-color="#181d53"/>
      <stop offset="0.919" stop-color="#832039"/>
      <stop offset="1" stop-color="#832039"/>
    </linearGradient>
    <clipPath id="clip-path-4">
      <path id="Caminho_82" data-name="Caminho 82" d="M1117.509,59.143l-.48,4.889-.48,4.888h0l.48-4.888.48-4.889Z" transform="translate(-1116.549 -59.143)" fill="none"/>
    </clipPath>
    <linearGradient id="linear-gradient-2" x1="-14.159" y1="6.772" x2="-14.146" y2="6.772" xlink:href="#linear-gradient"/>
  </defs>
  <g id="Grupo_113" data-name="Grupo 113">
    <g id="Grupo_112" data-name="Grupo 112" clip-path="url(#clip-path)">
      <path id="Caminho_69" data-name="Caminho 69" d="M6.212,147.123a2.077,2.077,0,0,1-1.537-.576,1.993,1.993,0,0,1-.576-1.473V132.843a.567.567,0,0,0-.64-.64H1.985a1.974,1.974,0,0,1-1.409-.544A1.811,1.811,0,0,1,0,130.282a2,2,0,0,1,.576-1.473,1.916,1.916,0,0,1,1.409-.576H3.458a.566.566,0,0,0,.64-.64v-1.665a7.334,7.334,0,0,1,1.7-5.091,6.163,6.163,0,0,1,4.835-1.889,6.823,6.823,0,0,1,1.441.16c.49.107.865.2,1.121.288a1.744,1.744,0,0,1,1.217,1.793,2,2,0,0,1-.608,1.569,2.091,2.091,0,0,1-1.441.544,2.6,2.6,0,0,1-.833-.128,3.616,3.616,0,0,0-1.088-.128,1.631,1.631,0,0,0-1.537.768,4.515,4.515,0,0,0-.448,2.241v1.537a.566.566,0,0,0,.64.64h2.754a1.843,1.843,0,0,1,1.345.576,2,2,0,0,1,.576,1.473,1.867,1.867,0,0,1-.544,1.377,1.948,1.948,0,0,1-1.441.544H9.093a.566.566,0,0,0-.64.64v12.231a1.9,1.9,0,0,1-.64,1.473,2.305,2.305,0,0,1-1.6.576" transform="translate(0 -104.452)" fill="#fff"/>
      <path id="Caminho_70" data-name="Caminho 70" d="M136.23,199.3v8.133a1.74,1.74,0,0,1-.672,1.473,2.466,2.466,0,0,1-3.01,0,1.739,1.739,0,0,1-.672-1.473V192.385a1.977,1.977,0,0,1,.672-1.633,2.352,2.352,0,0,1,3.01,0,1.977,1.977,0,0,1,.672,1.633v.256a6.861,6.861,0,0,1,2.337-1.985,6.351,6.351,0,0,1,4.579-.576,1.865,1.865,0,0,1,1.153.768,2.259,2.259,0,0,1,.384,1.281,2.334,2.334,0,0,1-.544,1.5,1.9,1.9,0,0,1-1.569.672,3.57,3.57,0,0,1-.929-.128,4.687,4.687,0,0,0-1.185-.128,3.8,3.8,0,0,0-3.042,1.409,5.78,5.78,0,0,0-1.185,3.842" transform="translate(-115.804 -166.748)" fill="#fff"/>
      <path id="Caminho_71" data-name="Caminho 71" d="M245.037,209.419a9.99,9.99,0,0,1-7.492-2.754,10.171,10.171,0,0,1-2.689-7.428,8.934,8.934,0,0,1,2.722-6.724,9.681,9.681,0,0,1,7.012-2.626,9.205,9.205,0,0,1,6.66,2.4,7.893,7.893,0,0,1,2.5,5.923,2.8,2.8,0,0,1-.736,2.113,2.619,2.619,0,0,1-1.889.7H239.978q-.641,0-.448.7a4.72,4.72,0,0,0,2.081,2.786,6.5,6.5,0,0,0,3.554.993,10.558,10.558,0,0,0,2.85-.384,7.174,7.174,0,0,0,2.4-1.153,1.3,1.3,0,0,1,.833-.256,1.736,1.736,0,0,1,1.281.608,2.027,2.027,0,0,1,.576,1.441,2.428,2.428,0,0,1-.128.768,1.827,1.827,0,0,1-.576.768,9.825,9.825,0,0,1-3.554,1.665,16.48,16.48,0,0,1-3.81.448m3.714-11.719a.34.34,0,0,0,.384-.384,3.249,3.249,0,0,0-1.313-2.562,4.9,4.9,0,0,0-3.234-1.089,6.1,6.1,0,0,0-3.17.9,3.622,3.622,0,0,0-1.825,2.369V197a1.1,1.1,0,0,0-.032.448q.032.192.544.192Z" transform="translate(-206.235 -166.748)" fill="#fff"/>
      <path id="Caminho_72" data-name="Caminho 72" d="M402.483,156.353a5.674,5.674,0,0,1-4.1-1.537,6.109,6.109,0,0,1-1.6-4.611v-8.133a.566.566,0,0,0-.64-.64h-1.153a1.974,1.974,0,0,1-1.409-.544,1.812,1.812,0,0,1-.576-1.377,2,2,0,0,1,.576-1.473,1.917,1.917,0,0,1,1.409-.576h1.153a.566.566,0,0,0,.64-.64v-5.379a1.838,1.838,0,0,1,.608-1.441,2.176,2.176,0,0,1,1.5-.544,2.268,2.268,0,0,1,1.569.544,1.842,1.842,0,0,1,.608,1.441v5.379a.566.566,0,0,0,.64.64h3.458a1.844,1.844,0,0,1,1.345.576,2,2,0,0,1,.576,1.473,1.867,1.867,0,0,1-.544,1.377,1.948,1.948,0,0,1-1.441.544h-3.394a.566.566,0,0,0-.64.64v7.556q0,2.69,2.177,2.69a5.121,5.121,0,0,0,1.345-.192,4.5,4.5,0,0,1,.961-.192,1.691,1.691,0,0,1,1.377.576,2.036,2.036,0,0,1,.48,1.345,2.185,2.185,0,0,1-.32,1.121,1.877,1.877,0,0,1-1.025.8,9.428,9.428,0,0,1-1.761.416,12.513,12.513,0,0,1-1.825.16" transform="translate(-345.113 -113.681)" fill="#fff"/>
      <path id="Caminho_73" data-name="Caminho 73" d="M527.183,209.419a9.99,9.99,0,0,1-7.492-2.754A10.172,10.172,0,0,1,517,199.237a8.934,8.934,0,0,1,2.722-6.724,9.681,9.681,0,0,1,7.012-2.626,9.205,9.205,0,0,1,6.66,2.4,7.893,7.893,0,0,1,2.5,5.923,2.8,2.8,0,0,1-.736,2.113,2.619,2.619,0,0,1-1.889.7H522.124q-.641,0-.448.7a4.72,4.72,0,0,0,2.081,2.786,6.5,6.5,0,0,0,3.554.993,10.557,10.557,0,0,0,2.85-.384,7.175,7.175,0,0,0,2.4-1.153,1.3,1.3,0,0,1,.833-.256,1.736,1.736,0,0,1,1.281.608,2.027,2.027,0,0,1,.576,1.441,2.428,2.428,0,0,1-.128.768,1.827,1.827,0,0,1-.576.768,9.824,9.824,0,0,1-3.554,1.665,16.48,16.48,0,0,1-3.81.448M530.9,197.7a.339.339,0,0,0,.384-.384,3.249,3.249,0,0,0-1.313-2.562,4.9,4.9,0,0,0-3.234-1.089,6.1,6.1,0,0,0-3.17.9,3.622,3.622,0,0,0-1.825,2.369V197a1.093,1.093,0,0,0-.032.448q.031.192.544.192Z" transform="translate(-453.998 -166.748)" fill="#fff"/>
      <path id="Caminho_74" data-name="Caminho 74" d="M693.535,144.816a8.008,8.008,0,0,1-3.2-.608,7.717,7.717,0,0,1-2.434-1.633v.256a1.74,1.74,0,0,1-.672,1.473,2.467,2.467,0,0,1-3.01,0,1.74,1.74,0,0,1-.672-1.473V118.5a1.977,1.977,0,0,1,.672-1.633,2.353,2.353,0,0,1,3.01,0,1.978,1.978,0,0,1,.672,1.633v8.965a7.315,7.315,0,0,1,2.434-1.6,8.393,8.393,0,0,1,3.2-.576,9.687,9.687,0,0,1,4.963,1.249,8.947,8.947,0,0,1,3.362,3.426,9.943,9.943,0,0,1,1.216,4.931,10.62,10.62,0,0,1-1.216,5.091,8.99,8.99,0,0,1-3.362,3.554,9.5,9.5,0,0,1-4.963,1.281m-.384-3.97a5.283,5.283,0,0,0,4.034-1.633,6.049,6.049,0,0,0,1.537-4.323,5.539,5.539,0,0,0-1.537-4.1,5.455,5.455,0,0,0-4.034-1.537,4.952,4.952,0,0,0-3.842,1.537,5.828,5.828,0,0,0-1.409,4.1,6.384,6.384,0,0,0,1.409,4.323,4.809,4.809,0,0,0,3.842,1.633" transform="translate(-600.246 -102.144)" fill="#de2217"/>
      <path id="Caminho_75" data-name="Caminho 75" d="M860.034,121.762a2.952,2.952,0,0,1-2.081-.8,2.561,2.561,0,0,1-.865-1.953,2.5,2.5,0,0,1,.865-1.889,2.956,2.956,0,0,1,2.081-.8,2.767,2.767,0,0,1,1.985.8,2.539,2.539,0,0,1,.832,1.889,2.609,2.609,0,0,1-.832,1.953,2.763,2.763,0,0,1-1.985.8m-.064,23.053a2.423,2.423,0,0,1-1.5-.512,1.74,1.74,0,0,1-.672-1.473V127.462a1.978,1.978,0,0,1,.672-1.633,2.353,2.353,0,0,1,3.01,0,1.978,1.978,0,0,1,.672,1.633v15.369a1.74,1.74,0,0,1-.672,1.473,2.425,2.425,0,0,1-1.5.512" transform="translate(-752.641 -102.144)" fill="#de2217"/>
      <path id="Caminho_76" data-name="Caminho 76" d="M926.2,144.816a9.543,9.543,0,0,1-4.931-1.281,8.911,8.911,0,0,1-3.394-3.554,10.61,10.61,0,0,1-1.217-5.091,9.933,9.933,0,0,1,1.217-4.931,8.87,8.87,0,0,1,3.394-3.426,9.73,9.73,0,0,1,4.931-1.249,8.4,8.4,0,0,1,3.2.576,7.335,7.335,0,0,1,2.433,1.6V118.5a1.977,1.977,0,0,1,.672-1.633,2.352,2.352,0,0,1,3.01,0,1.978,1.978,0,0,1,.672,1.633v24.334a1.74,1.74,0,0,1-.672,1.473,2.466,2.466,0,0,1-3.01,0,1.74,1.74,0,0,1-.672-1.473v-.256a7.74,7.74,0,0,1-2.433,1.633,8.016,8.016,0,0,1-3.2.608m.384-3.97a4.811,4.811,0,0,0,3.842-1.633,6.389,6.389,0,0,0,1.409-4.323,5.832,5.832,0,0,0-1.409-4.1,4.954,4.954,0,0,0-3.842-1.537,5.455,5.455,0,0,0-4.034,1.537,5.541,5.541,0,0,0-1.537,4.1,6.051,6.051,0,0,0,1.537,4.323,5.283,5.283,0,0,0,4.034,1.633" transform="translate(-804.948 -102.144)" fill="#de2217"/>
      <path id="Caminho_77" data-name="Caminho 77" d="M1073.939,6.324a7.37,7.37,0,0,0-8.575-6.186,7.721,7.721,0,0,0-5.936,8.376l1.122-.226a6.518,6.518,0,0,1,5.026-6.967,6.229,6.229,0,0,1,7.247,5.229,6.612,6.612,0,0,1-4.278,7.507l.213,1.189a7.814,7.814,0,0,0,5.181-8.92" transform="translate(-930.294 0.001)" fill="#de2217"/>
      <path id="Caminho_78" data-name="Caminho 78" d="M1102.252,41.918a2.806,2.806,0,0,0-3.264-2.355,2.911,2.911,0,0,0-2.268,2.738l1.176-.237a1.7,1.7,0,0,1,1.3-1.319,1.665,1.665,0,0,1,1.937,1.4,1.8,1.8,0,0,1-.681,1.768l.223,1.247a3.008,3.008,0,0,0,1.574-3.239" transform="translate(-963.071 -34.695)" fill="#de2217"/>
      <path id="Caminho_79" data-name="Caminho 79" d="M1088.087,24.121a5.088,5.088,0,0,0-5.919-4.271,5.316,5.316,0,0,0-4.113,5.559l1.129-.227a4.113,4.113,0,0,1,3.2-4.149,3.947,3.947,0,0,1,4.592,3.313,4.209,4.209,0,0,1-2.473,4.671l.214,1.2a5.41,5.41,0,0,0,3.375-6.091" transform="translate(-946.674 -17.347)" fill="#de2217"/>
    </g>
  </g>
  <g id="Grupo_115" data-name="Grupo 115" transform="translate(136.066 16.984)">
    <g id="Grupo_114" data-name="Grupo 114" clip-path="url(#clip-path-2)">
      <rect id="Retângulo_51" data-name="Retângulo 51" width="0.001" transform="translate(0 0) rotate(-66.371)" fill="url(#linear-gradient)"/>
    </g>
  </g>
  <g id="Grupo_117" data-name="Grupo 117">
    <g id="Grupo_116" data-name="Grupo 116" clip-path="url(#clip-path)">
      <path id="Caminho_81" data-name="Caminho 81" d="M1056.065,63.2,1059,59.145l-9.08,4.1a11.168,11.168,0,0,1,4.093,1.349l2.055-1.394h0Z" transform="translate(-921.971 -51.937)" fill="#dedede"/>
    </g>
  </g>
  <g id="Grupo_119" data-name="Grupo 119" transform="translate(136.066 7.207)">
    <g id="Grupo_118" data-name="Grupo 118" clip-path="url(#clip-path-4)">
      <rect id="Retângulo_53" data-name="Retângulo 53" width="9.315" height="4.875" transform="translate(-3.649 8.141) rotate(-65.859)" fill="url(#linear-gradient-2)"/>
    </g>
  </g>
  <g id="Grupo_121" data-name="Grupo 121">
    <g id="Grupo_120" data-name="Grupo 120" clip-path="url(#clip-path)">
      <path id="Caminho_83" data-name="Caminho 83" d="M1098.5,59.143h0l-2.932,4.053h0l-.667,2.365a10.9,10.9,0,0,1,2.638,3.359h0l.48-4.888Z" transform="translate(-961.472 -51.936)" fill="#fff" fill-rule="evenodd"/>
    </g>
  </g>
</svg>
