<?xml version="1.0" encoding="UTF-8"?><svg id="Camada_1" xmlns="http://www.w3.org/2000/svg" xmlns:xlink="http://www.w3.org/1999/xlink" viewBox="0 0 500 500"><defs><style>.cls-1{fill:#afaeae;}.cls-1,.cls-2{fill-rule:evenodd;}.cls-3{fill:#2c2764;}.cls-4{mask:url(#mask);}.cls-2{fill:#E73B22;}</style><mask id="mask" x="-874.34" y="230.7" width="1141.11" height="565.74" maskUnits="userSpaceOnUse"/></defs><g><path class="cls-3" d="M154.41,248.1l16.06-2.69c-2.57-44.46,28.71-84.65,73.64-92.18,48.15-8.07,93.73,24.42,101.8,72.57,7.53,44.93-20.26,87.61-63.14,99.67l2.69,16.06c51.7-13.61,85.43-64.65,76.42-118.41-9.55-56.97-63.47-95.42-120.45-85.87-53.76,9.01-91.01,57.54-87.02,110.85Z"/><path class="cls-3" d="M297.99,233.83c-3.64-21.69-24.16-36.32-45.85-32.69-18.4,3.08-31.72,18.33-33.12,36.13l16.84-2.82c2.28-8.73,9.48-15.75,18.95-17.34,12.87-2.16,25.05,6.53,27.2,19.39,1.59,9.47-2.7,18.57-10.21,23.57l2.82,16.84c16.37-7.12,26.44-24.68,23.36-43.09Z"/><path class="cls-3" d="M329.94,228.48c-6.59-39.33-43.82-65.87-83.15-59.28-36.1,6.05-61.4,37.91-60.22,73.52l16.15-2.71c.16-26.72,19.49-50.27,46.74-54.84,30.51-5.11,59.39,15.47,64.5,45.98,4.57,27.26-11.39,53.2-36.6,62.07l2.71,16.15c34.04-10.49,55.91-44.8,49.86-80.9Z"/></g><g><path class="cls-2" d="M250.78,364.2l8.25-65.61,8.25-65.62-130.62,52.34c21.84,3.32,41.15,9.8,57.95,19.41l29.7-18.13-10.18,31.62c14.72,12.19,26.94,27.53,36.64,46h0Z"/><g class="cls-4"><path class="cls-1" d="M224.32,286.58l-10.18,31.62c14.72,12.19,26.94,27.53,36.64,46l8.25-65.61,8.25-65.62c-28.64,35.75-42.96,53.62-42.96,53.62h0Z"/></g></g></svg>